<svg width="99" height="61" viewBox="0 0 99 61" fill="none" xmlns="http://www.w3.org/2000/svg">
<path d="M89.3203 0.983498V44.1095C89.3203 48.2031 86.564 50.3485 83.9843 50.9916C81.4046 51.6348 77.9766 51.0315 76.0918 47.4074L56.1119 9.01813C53.2162 3.45515 47.5524 0 41.331 0C35.1095 0 29.4457 3.45515 26.55 9.01813L0 60.0285H10.937L35.1188 13.5694C36.3528 11.1964 38.6769 9.77864 41.331 9.77864C43.985 9.77864 46.3068 11.1964 47.5431 13.5694L67.523 51.9587C71.1625 58.9512 78.711 62.3781 86.3037 60.4839C93.8964 58.5897 99 52.0103 99 44.1095V0.983498H89.3203Z" fill="#ACED84"/>
</svg>
