<?xml version="1.0" encoding="UTF-8"?><svg id="Ebene_1" xmlns="http://www.w3.org/2000/svg" width="1000" height="1000" viewBox="0 0 1000 1000"><defs><style>.cls-1{fill:#aced84;stroke-width:0px;}</style></defs><path class="cls-1" d="M885.28,232.61v413.15c0,39.21-26.67,59.76-51.63,65.92-24.96,6.16-58.13.38-76.37-34.33l-193.32-367.76c-28.01-53.28-82.81-86.39-143.01-86.39s-115,33.1-143.01,86.39L21.06,798.26h105.81l233.97-445.08c11.95-22.73,34.42-36.31,60.1-36.31s48.15,13.57,60.1,36.31l193.32,367.76c35.22,66.99,108.25,99.81,181.72,81.68,73.48-18.14,122.85-81.17,122.85-156.85V232.61h-93.66Z"/></svg>