<svg xmlns="http://www.w3.org/2000/svg" width="15" height="15" viewBox="0 0 15 15" fill="none">
    <path d="M10.6425 0H4.3575C1.6275 0 0 1.6275 0 4.3575V10.635C0 13.3725 1.6275 15 4.3575 15H10.635C13.365 15 14.9925 13.3725 14.9925 10.6425V4.3575C15 1.6275 13.3725 0 10.6425 0ZM7.5 10.41C5.895 10.41 4.59 9.105 4.59 7.5C4.59 5.895 5.895 4.59 7.5 4.59C9.105 4.59 10.41 5.895 10.41 7.5C10.41 9.105 9.105 10.41 7.5 10.41ZM11.94 3.66C11.9025 3.75 11.85 3.8325 11.7825 3.9075C11.7075 3.975 11.625 4.0275 11.535 4.065C11.445 4.1025 11.3475 4.125 11.25 4.125C11.0475 4.125 10.86 4.05 10.7175 3.9075C10.65 3.8325 10.5975 3.75 10.56 3.66C10.5225 3.57 10.5 3.4725 10.5 3.375C10.5 3.2775 10.5225 3.18 10.56 3.09C10.5975 2.9925 10.65 2.9175 10.7175 2.8425C10.89 2.67 11.1525 2.5875 11.3925 2.64C11.445 2.6475 11.49 2.6625 11.535 2.685C11.58 2.7 11.625 2.7225 11.67 2.7525C11.7075 2.775 11.745 2.8125 11.7825 2.8425C11.85 2.9175 11.9025 2.9925 11.94 3.09C11.9775 3.18 12 3.2775 12 3.375C12 3.4725 11.9775 3.57 11.94 3.66Z" fill="#BBBBBB"/>
</svg>