<svg xmlns="http://www.w3.org/2000/svg" width="26" height="27" viewBox="0 0 26 27" fill="none">
    <path d="M13 19.0387C12.1429 19.0387 11.3051 18.785 10.5925 18.3098C9.87992 17.8345 9.3245 17.159 8.99652 16.3686C8.66854 15.5783 8.58273 14.7086 8.74993 13.8696C8.91713 13.0306 9.32984 12.2599 9.93587 11.655C10.5419 11.0501 11.314 10.6381 12.1546 10.4712C12.9952 10.3043 13.8665 10.39 14.6583 10.7173C15.4501 11.0447 16.1269 11.5991 16.603 12.3104C17.0792 13.0217 17.3333 13.8579 17.3333 14.7134C17.3333 15.8606 16.8768 16.9607 16.0641 17.7719C15.2515 18.583 14.1493 19.0387 13 19.0387ZM19.5 23.364C19.5 22.5037 19.1576 21.6786 18.5481 21.0702C17.9386 20.4618 17.112 20.1201 16.25 20.1201H9.75C8.88805 20.1201 8.0614 20.4618 7.4519 21.0702C6.84241 21.6786 6.5 22.5037 6.5 23.364V26.608H19.5V23.364ZM19.5 9.30678C18.6429 9.30678 17.8051 9.0531 17.0925 8.57783C16.3799 8.10256 15.8245 7.42704 15.4965 6.63669C15.1685 5.84635 15.0827 4.97667 15.2499 4.13764C15.4171 3.29862 15.8298 2.52792 16.4359 1.92301C17.0419 1.31811 17.814 0.906163 18.6546 0.73927C19.4952 0.572377 20.3665 0.658033 21.1583 0.985405C21.9501 1.31278 22.6269 1.86716 23.103 2.57846C23.5792 3.28975 23.8333 4.126 23.8333 4.98147C23.8333 6.12861 23.3768 7.22877 22.5641 8.03992C21.7515 8.85108 20.6493 9.30678 19.5 9.30678ZM6.5 9.30678C5.64295 9.30678 4.80514 9.0531 4.09253 8.57783C3.37992 8.10256 2.8245 7.42704 2.49652 6.63669C2.16854 5.84635 2.08273 4.97667 2.24993 4.13764C2.41713 3.29862 2.82984 2.52792 3.43587 1.92301C4.0419 1.31811 4.81402 0.906163 5.65461 0.73927C6.49519 0.572377 7.36648 0.658033 8.15829 0.985405C8.95011 1.31278 9.62688 1.86716 10.103 2.57846C10.5792 3.28975 10.8333 4.126 10.8333 4.98147C10.8333 6.12861 10.3768 7.22877 9.56413 8.03992C8.75147 8.85108 7.64927 9.30678 6.5 9.30678ZM6.5 14.7134C6.49944 13.1156 7.09274 11.5744 8.16508 10.3881H3.25C2.38805 10.3881 1.5614 10.7299 0.951903 11.3382C0.34241 11.9466 0 12.7717 0 13.6321L0 16.8761H6.87808C6.6293 16.182 6.50142 15.4506 6.5 14.7134ZM19.1219 16.8761H26V13.6321C26 12.7717 25.6576 11.9466 25.0481 11.3382C24.4386 10.7299 23.612 10.3881 22.75 10.3881H17.8349C18.6175 11.2521 19.1506 12.3119 19.3772 13.4545C19.6039 14.597 19.5156 15.7796 19.1219 16.8761Z" fill="#BBBBBB"/>
</svg>