<svg xmlns="http://www.w3.org/2000/svg" width="26" height="27" viewBox="0 0 26 27" fill="none">
    <path d="M14.0833 7.2507H11.9167C11.342 7.2507 10.7909 7.47855 10.3846 7.88413C9.97827 8.2897 9.75 8.83978 9.75 9.41336V26.7146H16.25V9.41336C16.25 8.83978 16.0217 8.2897 15.6154 7.88413C15.2091 7.47855 14.658 7.2507 14.0833 7.2507Z" fill="#BBBBBB"/>
    <path d="M23.8333 0.762726H21.6667C21.092 0.762726 20.5409 0.990576 20.1346 1.39615C19.7283 1.80173 19.5 2.35181 19.5 2.92538V26.7146H26V2.92538C26 2.35181 25.7717 1.80173 25.3654 1.39615C24.9591 0.990576 24.408 0.762726 23.8333 0.762726Z" fill="#BBBBBB"/>
    <path d="M4.33333 13.7387H2.16667C1.59203 13.7387 1.04093 13.9665 0.634602 14.3721C0.228273 14.7777 0 15.3278 0 15.9013L0 26.7146H6.5V15.9013C6.5 15.3278 6.27173 14.7777 5.8654 14.3721C5.45907 13.9665 4.90797 13.7387 4.33333 13.7387Z" fill="#BBBBBB"/>
</svg>