<svg width="512" height="512" viewBox="0 0 512 512" fill="none" xmlns="http://www.w3.org/2000/svg">
<path d="M421.6 120.86L350.25 49.51C325.1 24.36 291.78 10.67 256.21 10.67H143.56C92.8601 10.67 51.5601 51.97 51.5601 102.67V409.34C51.5601 460.04 92.8601 501.34 143.56 501.34H368.45C419.15 501.34 460.45 460.04 460.45 409.34V214.91C460.45 179.34 446.55 146.01 421.61 120.87L421.6 120.86ZM407.08 135.38C418.32 146.62 426.91 159.91 432.43 174.22H327.55C310.58 174.22 296.88 160.52 296.88 143.55V38.68C311.4 44.2 324.48 52.79 335.72 64.03L407.07 135.38H407.08ZM440 409.33C440 448.79 407.9 480.89 368.44 480.89H143.55C104.09 480.89 71.9901 448.79 71.9901 409.33V102.67C71.9901 63.21 104.09 31.11 143.55 31.11H256.2C262.95 31.11 269.69 31.72 276.44 32.95V143.55C276.44 171.76 299.34 194.66 327.55 194.66H438.15C439.38 201.2 439.99 207.95 439.99 214.9V409.33H440Z" fill="#BFBFBF" stroke="#BFBFBF" stroke-width="1.3" stroke-miterlimit="10"/>
<path d="M209.48 354.62C208.49 362.88 206.34 368.34 201.71 374.62C192.46 387.01 179.24 392.96 161.39 392.96C145.86 392.96 134.62 388.66 124.87 379.08C113.8 368.17 108.01 353.14 108.01 336.12C108.01 301.91 129.82 278.45 161.55 278.45C187.49 278.45 204.52 291.84 209.47 316.13H187.66C184.69 303.57 175.76 296.63 162.38 296.63C143.54 296.63 129.83 312.99 129.83 335.63C129.83 347.2 133.47 357.28 140.24 365.05C146.02 371.66 153.13 374.8 162.22 374.8C176.1 374.8 184.69 368.19 188.33 354.64H209.48V354.62Z" fill="#BFBFBF"/>
<path d="M287.15 312.15C285.17 300.75 278.06 295.79 264.18 295.79C251.62 295.79 243.69 301.08 243.69 309.18C243.69 313.97 246.33 318.1 250.8 320.09C254.43 321.74 255.59 322.07 273.6 326.37C288.8 329.84 295.58 332.65 301.03 337.44C306.81 342.56 310.28 350.5 310.28 358.76C310.28 378.92 291.94 392.97 265.33 392.97C238.72 392.97 220.71 379.42 219.39 356.78H240.38C240.71 362.56 241.87 365.87 244.68 368.84C248.65 373.14 256.08 375.62 264.84 375.62C279.55 375.62 288.64 370 288.64 360.91C288.64 357.28 286.99 353.97 284.34 352.15C280.87 349.67 275.25 347.85 260.38 344.05C244.19 339.92 238.24 337.77 233.11 334.3C226 329.34 222.04 321.08 222.04 311.5C222.04 291.67 238.73 278.45 264.18 278.45C279.05 278.45 290.95 282.75 298.22 290.68C303.01 295.8 305.49 301.75 307.47 312.16H287.14L287.15 312.15Z" fill="#BFBFBF"/>
<path d="M338.05 280.58L362.84 366.18L387.46 280.58H411.09L373.25 390.8H352.43L314.59 280.58H338.06H338.05Z" fill="#BFBFBF"/>
</svg>
