<svg width="512" height="512" viewBox="0 0 512 512" fill="none" xmlns="http://www.w3.org/2000/svg">
<path d="M421.6 120.86L350.25 49.51C325.1 24.36 291.78 10.67 256.21 10.67H143.56C92.8601 10.67 51.5601 51.97 51.5601 102.67V409.34C51.5601 460.04 92.8601 501.34 143.56 501.34H368.45C419.15 501.34 460.45 460.04 460.45 409.34V214.91C460.45 179.34 446.55 146.01 421.61 120.87L421.6 120.86ZM407.08 135.38C418.32 146.62 426.91 159.91 432.43 174.22H327.55C310.58 174.22 296.88 160.52 296.88 143.55V38.68C311.4 44.2 324.48 52.79 335.72 64.03L407.07 135.38H407.08ZM440 409.33C440 448.79 407.9 480.89 368.44 480.89H143.55C104.09 480.89 71.9901 448.79 71.9901 409.33V102.67C71.9901 63.21 104.09 31.11 143.55 31.11H256.2C262.95 31.11 269.69 31.72 276.44 32.95V143.55C276.44 171.76 299.34 194.66 327.55 194.66H438.15C439.38 201.2 439.99 207.95 439.99 214.9V409.33H440Z" fill="#BFBFBF" stroke="#BFBFBF" stroke-width="1.3" stroke-miterlimit="10"/>
<path d="M116.77 301.35H141.83C151.94 301.35 155.68 301.9 160.52 304.21C171.95 309.6 178.88 322.68 178.88 338.95C178.88 356.54 171.19 369.18 158.32 373.03C154.03 374.35 150.52 374.68 143.04 374.68H116.77V301.36V301.35ZM142.83 363.13C150.19 363.13 153.16 362.36 156.9 359.61C161.96 355.98 164.37 349.28 164.37 339.6C164.37 327.07 160.3 318.27 152.83 314.87C149.31 313.22 146.89 312.89 139.75 312.89H131.29V363.13H142.83Z" fill="#BFBFBF"/>
<path d="M258.25 337.95C258.25 360.26 243.74 376.09 223.29 376.09C202.84 376.09 188.22 360.37 188.22 337.4C188.22 315.74 202.95 299.92 223.29 299.92C243.63 299.92 258.25 315.75 258.25 337.95ZM202.74 337.62C202.74 353.67 210.87 364 223.3 364C235.73 364 243.75 353.56 243.75 337.95C243.75 322.34 235.51 312.01 223.3 312.01C211.09 312.01 202.74 322.45 202.74 337.62Z" fill="#BFBFBF"/>
<path d="M335.31 350.59C334.65 356.09 333.22 359.71 330.14 363.89C323.98 372.13 315.19 376.09 303.32 376.09C292.99 376.09 285.51 373.23 279.03 366.86C271.66 359.61 267.82 349.6 267.82 338.28C267.82 315.53 282.33 299.92 303.44 299.92C320.7 299.92 332.02 308.82 335.32 324.98H320.81C318.83 316.63 312.9 312.01 303.99 312.01C291.46 312.01 282.33 322.89 282.33 337.95C282.33 345.65 284.75 352.35 289.26 357.52C293.11 361.92 297.83 364.01 303.88 364.01C313.11 364.01 318.83 359.61 321.25 350.6H335.32L335.31 350.59Z" fill="#BFBFBF"/>
<path d="M354.55 374.67H338.28L362.24 335.87L340.69 301.35H356.96L370.48 324.76L383.56 301.35H399.94L378.61 335.87L403.01 374.67H386.63L370.47 347.08L354.53 374.67H354.55Z" fill="#BFBFBF"/>
</svg>
