<svg width="145" height="173" viewBox="0 0 145 173" fill="none" xmlns="http://www.w3.org/2000/svg">
<path d="M136.368 9.3586L48.7982 5.34778L6.01611 45.456V147.732V161.77L14.7062 165.112L118.319 168.454L131.688 165.112L139.042 154.417L141.047 82.2218L136.368 9.3586Z" fill="#D9D9D9"/>
<path fill-rule="evenodd" clip-rule="evenodd" d="M123.985 0H48.4697C46.9713 0 45.5286 0.582033 44.4636 1.62226L1.75848 42.9899C0.631568 44.0735 0 45.5719 0 47.1323V152.815C0 165.793 7.2073 173 20.1854 173H123.985C136.964 173 144.171 165.793 144.171 152.815V20.1854C144.171 7.2073 136.964 0 123.985 0ZM42.5318 19.0833V41.089H19.7086L42.5318 19.0833ZM134.078 152.815C134.078 157.477 132.809 159.632 131.812 160.635C130.803 161.638 128.642 162.907 123.985 162.907H20.1854C15.5291 162.907 13.3682 161.644 12.3589 160.635C11.362 159.632 10.0927 157.477 10.0927 152.815V51.126C10.3218 51.1508 10.5447 51.1817 10.7862 51.1817H46.1354C49.7267 51.1817 52.6244 48.2778 52.6244 44.6927V10.6004C52.6244 10.4271 52.5997 10.2599 52.5873 10.0927H123.985C128.642 10.0927 130.803 11.3558 131.812 12.3651C132.809 13.3682 134.078 15.5229 134.078 20.1854V152.821V152.815Z" fill="#ACED84"/>
</svg>
