<svg width="17" height="17" viewBox="0 0 17 17" fill="none" xmlns="http://www.w3.org/2000/svg">
<g clip-path="url(#clip0_594_4576)">
<path d="M16.1266 5.94431L11.004 1.03698C10.3416 0.374846 9.44403 0.00199921 8.50751 8.01636e-06C7.57098 -0.00198318 6.67179 0.367043 6.00667 1.02635L0.873375 5.94431C0.597883 6.20916 0.378567 6.5268 0.228513 6.87826C0.0784592 7.22973 0.00074234 7.60782 0 7.98998L0 17H17V7.98998C16.9993 7.60782 16.9215 7.22973 16.7715 6.87826C16.6214 6.5268 16.4021 6.20916 16.1266 5.94431ZM6.99762 2.03856C7.40367 1.64893 7.94522 1.43231 8.50796 1.43443C9.0707 1.43654 9.6106 1.65723 10.0137 2.04989L14.7935 6.62856L10.0024 11.4197C9.59743 11.8057 9.05945 12.0211 8.5 12.0211C7.94055 12.0211 7.40257 11.8057 6.99762 11.4197L2.20646 6.62856L6.99762 2.03856ZM15.5833 15.5833H1.41667V7.98998C1.41667 7.94464 1.42587 7.90073 1.43012 7.85539L5.99604 12.4213C6.6602 13.0853 7.56088 13.4583 8.5 13.4583C9.43912 13.4583 10.3398 13.0853 11.004 12.4213L15.5699 7.85539C15.5741 7.90073 15.5833 7.94464 15.5833 7.98998V15.5833Z" fill="#BBBBBB"/>
</g>
<defs>
<clipPath id="clip0_594_4576">
<rect width="17" height="17" fill="white"/>
</clipPath>
</defs>
</svg>
