<svg xmlns="http://www.w3.org/2000/svg" width="17" height="14" viewBox="0 0 17 14" fill="none">
    <path d="M8.49762 2.13174C8.65718 1.94943 8.79692 1.78067 8.94552 1.62024C9.75058 0.753493 10.7225 0.177923 11.9061 0.0341601C13.9407 -0.213257 15.8668 0.898819 16.6385 2.86722C17.2068 4.31735 17.0905 5.73779 16.3918 7.1202C15.7979 8.29582 14.9621 9.28601 14.0304 10.2017C12.6846 11.5242 11.1886 12.6587 9.59468 13.6619C8.88816 14.1068 8.11908 14.1161 7.41465 13.6692C5.46456 12.4316 3.64117 11.033 2.1056 9.29227C1.29168 8.36979 0.598716 7.36918 0.223297 6.18001C-0.431599 4.10691 0.378679 1.68535 2.33033 0.576394C3.89093 -0.310142 5.86187 -0.172109 7.34321 0.983722C7.70872 1.26916 8.01323 1.63274 8.34433 1.96193C8.39334 2.01037 8.43662 2.06455 8.49658 2.13226L8.49762 2.13174Z" fill="#F9595F"/>
</svg>