<svg width="168" height="173" viewBox="0 0 168 173" fill="none" xmlns="http://www.w3.org/2000/svg">
<path d="M136.368 9.3586L48.7983 5.34778L6.01624 45.456V147.732V161.77L14.7063 165.112L118.319 168.454L131.689 165.112L139.042 154.417L141.047 82.2218L136.368 9.3586Z" fill="#D9D9D9"/>
<path fill-rule="evenodd" clip-rule="evenodd" d="M123.985 0H48.4697C46.9713 0 45.5286 0.582033 44.4636 1.62226L1.75848 42.9899C0.631568 44.0735 0 45.5719 0 47.1323V152.815C0 165.793 7.2073 173 20.1854 173H123.985C136.964 173 144.171 165.793 144.171 152.815V20.1854C144.171 7.2073 136.964 0 123.985 0ZM42.5318 19.0833V41.089H19.7086L42.5318 19.0833ZM134.078 152.815C134.078 157.477 132.809 159.632 131.812 160.635C130.803 161.638 128.642 162.907 123.985 162.907H20.1854C15.5291 162.907 13.3682 161.644 12.3589 160.635C11.362 159.632 10.0927 157.477 10.0927 152.815V51.126C10.3218 51.1508 10.5447 51.1817 10.7862 51.1817H46.1354C49.7267 51.1817 52.6244 48.2778 52.6244 44.6927V10.6004C52.6244 10.4271 52.5997 10.2599 52.5873 10.0927H123.985C128.642 10.0927 130.803 11.3558 131.812 12.3651C132.809 13.3682 134.078 15.5229 134.078 20.1854V152.821V152.815Z" fill="#ACED84"/>
<g clip-path="url(#clip0_5578_59)">
<rect x="94.9867" y="89.23" width="72.9191" height="39.3379" rx="12" fill="black"/>
<path d="M108.594 114.941C108.594 114.54 108.73 114.203 109.002 113.931C109.274 113.652 109.643 113.512 110.109 113.512C110.581 113.512 110.95 113.652 111.215 113.931C111.487 114.203 111.623 114.54 111.623 114.941C111.623 115.342 111.487 115.679 111.215 115.951C110.95 116.223 110.581 116.359 110.109 116.359C109.643 116.359 109.274 116.223 109.002 115.951C108.73 115.679 108.594 115.342 108.594 114.941ZM120.808 110.397H116.737V108.259H120.808C121.517 108.259 122.09 108.145 122.527 107.916C122.964 107.686 123.282 107.371 123.483 106.97C123.691 106.562 123.794 106.097 123.794 105.574C123.794 105.08 123.691 104.618 123.483 104.188C123.282 103.751 122.964 103.4 122.527 103.135C122.09 102.87 121.517 102.738 120.808 102.738H117.564V116.23H114.868V100.589H120.808C122.018 100.589 123.046 100.804 123.891 101.234C124.743 101.656 125.391 102.244 125.835 102.996C126.279 103.74 126.501 104.593 126.501 105.552C126.501 106.562 126.279 107.429 125.835 108.152C125.391 108.875 124.743 109.43 123.891 109.817C123.046 110.204 122.018 110.397 120.808 110.397ZM133.462 116.23H130.121L130.143 114.092H133.462C134.429 114.092 135.238 113.881 135.89 113.458C136.549 113.036 137.043 112.431 137.372 111.643C137.709 110.855 137.877 109.917 137.877 108.829V107.98C137.877 107.135 137.781 106.387 137.587 105.735C137.401 105.083 137.122 104.535 136.749 104.091C136.384 103.647 135.933 103.311 135.396 103.082C134.866 102.852 134.254 102.738 133.559 102.738H130.057V100.589H133.559C134.597 100.589 135.546 100.765 136.406 101.116C137.265 101.459 138.006 101.957 138.629 102.609C139.26 103.261 139.743 104.041 140.079 104.951C140.416 105.86 140.584 106.877 140.584 108.001V108.829C140.584 109.953 140.416 110.97 140.079 111.879C139.743 112.789 139.26 113.569 138.629 114.221C137.999 114.866 137.247 115.363 136.373 115.714C135.507 116.058 134.537 116.23 133.462 116.23ZM131.615 100.589V116.23H128.918V100.589H131.615ZM145.988 100.589V116.23H143.291V100.589H145.988ZM152.369 107.432V109.57H145.3V107.432H152.369ZM153.26 100.589V102.738H145.3V100.589H153.26Z" fill="white"/>
</g>
<defs>
<clipPath id="clip0_5578_59">
<rect x="94.9867" y="89.23" width="72.9191" height="39.3379" rx="12" fill="white"/>
</clipPath>
</defs>
</svg>
