<svg width="512" height="512" viewBox="0 0 512 512" fill="none" xmlns="http://www.w3.org/2000/svg">
<path d="M421.6 120.86L350.25 49.51C325.1 24.36 291.78 10.67 256.21 10.67H143.56C92.8601 10.67 51.5601 51.97 51.5601 102.67V409.34C51.5601 460.04 92.8601 501.34 143.56 501.34H368.45C419.15 501.34 460.45 460.04 460.45 409.34V214.91C460.45 179.34 446.55 146.01 421.61 120.87L421.6 120.86ZM407.08 135.38C418.32 146.62 426.91 159.91 432.43 174.22H327.55C310.58 174.22 296.88 160.52 296.88 143.55V38.68C311.4 44.2 324.48 52.79 335.72 64.03L407.07 135.38H407.08ZM440 409.33C440 448.79 407.9 480.89 368.44 480.89H143.55C104.09 480.89 71.9901 448.79 71.9901 409.33V102.67C71.9901 63.21 104.09 31.11 143.55 31.11H256.2C262.95 31.11 269.69 31.72 276.44 32.95V143.55C276.44 171.76 299.34 194.66 327.55 194.66H438.15C439.38 201.2 439.99 207.95 439.99 214.9V409.33H440Z" fill="#BFBFBF" stroke="#BFBFBF" stroke-width="1.3" stroke-miterlimit="10"/>
<path d="M164.54 301.35V351.69C164.54 359.61 163.77 363.34 161.35 366.97C157.39 372.91 150.25 376.09 140.9 376.09C130.9 376.09 123.53 372.57 120.01 365.87C117.81 361.8 117.37 358.95 117.37 347.95H130.67C130.67 355.43 130.67 356.52 131.22 358.5C132.1 361.91 135.73 364 140.67 364C145.61 364 148.59 362.02 149.57 358.17C149.9 356.74 150.01 354.65 150.01 351.02V301.33H164.52L164.54 301.35Z" fill="#BFBFBF"/>
<path d="M220.27 322.34C218.95 314.76 214.22 311.46 204.99 311.46C196.64 311.46 191.36 314.98 191.36 320.36C191.36 323.55 193.12 326.3 196.09 327.61C198.51 328.71 199.28 328.93 211.26 331.79C221.37 334.1 225.88 335.97 229.51 339.15C233.36 342.56 235.67 347.83 235.67 353.33C235.67 366.74 223.47 376.08 205.77 376.08C188.07 376.08 176.09 367.07 175.21 352.01H189.17C189.39 355.86 190.16 358.06 192.03 360.03C194.67 362.89 199.61 364.54 205.44 364.54C215.22 364.54 221.27 360.8 221.27 354.76C221.27 352.34 220.17 350.14 218.41 348.93C216.1 347.28 212.36 346.07 202.47 343.54C191.7 340.79 187.74 339.36 184.33 337.05C179.6 333.75 176.96 328.26 176.96 321.88C176.96 308.69 188.06 299.9 204.99 299.9C214.88 299.9 222.8 302.76 227.63 308.03C230.82 311.44 232.47 315.4 233.79 322.32H220.27V322.34Z" fill="#BFBFBF"/>
<path d="M314.48 337.95C314.48 360.26 299.97 376.09 279.52 376.09C259.07 376.09 244.45 360.37 244.45 337.4C244.45 315.74 259.18 299.92 279.52 299.92C299.86 299.92 314.48 315.75 314.48 337.95ZM258.97 337.62C258.97 353.67 267.1 364 279.53 364C291.96 364 299.98 353.56 299.98 337.95C299.98 322.34 291.74 312.01 279.53 312.01C267.32 312.01 258.97 322.45 258.97 337.62Z" fill="#BFBFBF"/>
<path d="M342.62 301.35L373.51 352.46V301.35H388.02V374.67H372.96L341.63 322.57V374.67H327.12V301.35H342.62Z" fill="#BFBFBF"/>
</svg>
