<svg width="512" height="512" viewBox="0 0 512 512" fill="none" xmlns="http://www.w3.org/2000/svg">
<path d="M421.6 120.86L350.25 49.5099C325.1 24.3599 291.78 10.6699 256.21 10.6699H143.56C92.8601 10.6699 51.5601 51.9699 51.5601 102.67V409.34C51.5601 460.04 92.8601 501.34 143.56 501.34H368.45C419.15 501.34 460.45 460.04 460.45 409.34V214.91C460.45 179.34 446.55 146.01 421.61 120.87L421.6 120.86ZM407.08 135.38C418.32 146.62 426.91 159.91 432.43 174.22H327.55C310.58 174.22 296.88 160.52 296.88 143.55V38.6799C311.4 44.1999 324.48 52.7899 335.72 64.0299L407.07 135.38H407.08ZM440 409.33C440 448.79 407.9 480.89 368.44 480.89H143.55C104.09 480.89 71.9901 448.79 71.9901 409.33V102.67C71.9901 63.2099 104.09 31.1099 143.55 31.1099H256.2C262.95 31.1099 269.69 31.7199 276.44 32.9499V143.55C276.44 171.76 299.34 194.66 327.55 194.66H438.15C439.38 201.2 439.99 207.95 439.99 214.9V409.33H440Z" fill="#BFBFBF" stroke="#BFBFBF" stroke-width="1.3" stroke-miterlimit="10"/>
<path d="M189.24 390.81L164.62 307.03V390.81H144.79V280.59H176.35L199.98 362.39L223.78 280.59H255.34V390.81H235.51V307.03L211.05 390.81H189.24Z" fill="#BFBFBF"/>
<path d="M278.64 280.59H316.32C331.52 280.59 337.14 281.42 344.41 284.89C361.6 292.99 372.01 312.65 372.01 337.11C372.01 363.55 360.44 382.55 341.11 388.34C334.66 390.32 329.38 390.82 318.14 390.82H278.64V280.6V280.59ZM317.8 373.46C328.87 373.46 333.33 372.3 338.95 368.17C346.55 362.72 350.19 352.64 350.19 338.09C350.19 319.25 344.08 306.03 332.84 300.91C327.55 298.43 323.92 297.94 313.17 297.94H300.45V373.46H317.8Z" fill="#BFBFBF"/>
</svg>
