<svg width="45" height="54" viewBox="0 0 45 54" fill="none" xmlns="http://www.w3.org/2000/svg">
<path d="M40.2984 12.2127L32.5869 4.50121C29.8691 1.78341 26.2674 0.302979 22.4227 0.302979H10.2479C4.76807 0.302979 0.304688 4.76636 0.304688 10.2462V43.3901C0.304688 48.8699 4.76807 53.3333 10.2479 53.3333H34.5534C40.0332 53.3333 44.4966 48.8699 44.4966 43.3901V22.3768C44.4966 18.5321 42.9941 14.9305 40.2984 12.2127ZM38.7296 13.7815C39.9448 14.9968 40.8729 16.433 41.4695 17.9797H30.1342C28.3003 17.9797 26.8198 16.4993 26.8198 14.6654V3.33012C28.3887 3.92672 29.8028 4.85475 31.0181 6.07002L38.7296 13.7815ZM42.287 43.3901C42.287 47.6546 38.8179 51.1237 34.5534 51.1237H10.2479C5.98335 51.1237 2.51428 47.6546 2.51428 43.3901V10.2462C2.51428 5.98164 5.98335 2.51257 10.2479 2.51257H22.4227C23.1519 2.51257 23.8811 2.57886 24.6102 2.71144V14.6654C24.6102 17.7146 27.085 20.1893 30.1342 20.1893H42.0882C42.2207 20.8964 42.287 21.6256 42.287 22.3768V43.3901ZM11.2864 29.0277H9.14307C7.92779 29.0277 6.93348 30.022 6.93348 31.2373V41.1805C6.93348 41.7992 7.41959 42.2853 8.03827 42.2853C8.65696 42.2853 9.14307 41.7992 9.14307 41.1805V37.8661H11.2864C13.739 37.8661 15.7277 35.8333 15.7277 33.4027C15.7277 30.9722 13.739 29.0277 11.2864 29.0277ZM11.2864 35.6565H9.14307V31.2373H11.2864C12.5238 31.2373 13.5181 32.2095 13.5181 33.4027C13.5181 34.5959 12.5017 35.6565 11.2864 35.6565ZM22.4007 29.0277C22.4007 29.0277 21.2738 29.0277 20.1911 29.0277C18.9758 29.0277 17.9815 30.022 17.9815 31.2373V40.0757C17.9815 41.291 18.9758 42.2853 20.1911 42.2853C21.2517 42.2853 22.3344 42.2853 22.4007 42.2853C24.8533 42.2853 26.8198 40.3188 26.8198 37.9103V33.4248C26.8198 31.0164 24.8533 29.0498 22.4007 29.0498V29.0277ZM24.6102 37.9103C24.6102 39.0814 23.6601 40.0315 22.489 40.0757H20.1911V31.2373H22.489C23.6601 31.2815 24.6102 32.2537 24.6102 33.4027V37.8882V37.9103ZM37.8678 30.1325C37.8678 30.7512 37.3817 31.2373 36.763 31.2373H31.239V35.6565H34.5534C35.1721 35.6565 35.6582 36.1426 35.6582 36.7613C35.6582 37.38 35.1721 37.8661 34.5534 37.8661H31.239V41.1805C31.239 41.7992 30.7529 42.2853 30.1342 42.2853C29.5155 42.2853 29.0294 41.7992 29.0294 41.1805V31.2373C29.0294 30.022 30.0238 29.0277 31.239 29.0277H36.763C37.3817 29.0277 37.8678 29.5138 37.8678 30.1325Z" fill="#BFBFBF"/>
</svg>
