<svg width="11" height="11" viewBox="0 0 11 11" fill="none" xmlns="http://www.w3.org/2000/svg">
<path d="M5.5 0.916705C6.10798 0.9187 6.70953 1.04125 7.26983 1.27727C7.83014 1.51329 8.33807 1.85808 8.76424 2.2917H6.875V3.20837H9.2322C9.45786 3.20813 9.6742 3.11838 9.83377 2.95881C9.99333 2.79925 10.0831 2.5829 10.0833 2.35725V4.014e-05H9.16666V1.41079C8.37717 0.699849 7.39841 0.233174 6.34902 0.0673274C5.29962 -0.0985188 4.22465 0.0435849 3.2544 0.476414C2.28415 0.909244 1.46028 1.61421 0.882639 2.50588C0.305001 3.39754 -0.00159691 4.43762 6.255e-06 5.50003H0.916671C0.918006 4.28487 1.40132 3.11986 2.26057 2.2606C3.11982 1.40135 4.28483 0.91804 5.5 0.916705Z" fill="#BBBBBB"/>
<path d="M10.0834 5.49998C10.0847 6.40993 9.81477 7.29962 9.30804 8.05541C8.80131 8.81121 8.08079 9.3988 7.23852 9.74315C6.39624 10.0875 5.47044 10.173 4.57936 9.98864C3.68828 9.80432 2.87237 9.35856 2.23583 8.70831H4.12508V7.79165H1.76787C1.54221 7.79189 1.32587 7.88164 1.1663 8.0412C1.00674 8.20077 0.916991 8.41711 0.916748 8.64277V11H1.83341V9.58923C2.6229 10.3002 3.60166 10.7668 4.65105 10.9327C5.70045 11.0985 6.77542 10.9564 7.74567 10.5236C8.71592 10.0908 9.5398 9.3858 10.1174 8.49414C10.6951 7.60247 11.0017 6.5624 11.0001 5.49998H10.0834Z" fill="#BBBBBB"/>
</svg>
