<svg xmlns="http://www.w3.org/2000/svg" width="20" height="13" viewBox="0 0 20 13" fill="none">
    <path d="M20 9.64437L17.075 12.4962C16.7417 12.8212 16.3083 13 15.8333 13C15.3583 13 14.925 12.8212 14.5917 12.4962L11.6917 9.66875L12.8667 8.52312L14.9917 10.595V2.4375C14.9917 1.99063 14.6167 1.625 14.1583 1.625H8.90833L7.24167 0H14.1583C15.5333 0 16.6583 1.09688 16.6583 2.4375V10.595L18.8167 8.49062L19.9917 9.63625L20 9.64437ZM5.83333 11.375C5.375 11.375 5 11.0094 5 10.5625V2.405L7.125 4.47688L8.3 3.33125L5.4 0.50375C4.74167 -0.138125 3.58333 -0.138125 2.925 0.50375L0 3.35563L1.175 4.50125L3.33333 2.39687V10.5544C3.33333 11.895 4.45833 12.9919 5.83333 12.9919H12.75L11.0833 11.3669H5.83333V11.375Z" fill="#BBBBBB"/>
</svg>