<svg xmlns="http://www.w3.org/2000/svg" width="57" height="55" viewBox="0 0 57 55" fill="none">
    <g opacity="0.5" clip-path="url(#clip0_5510_32)">
        <path d="M51.5501 36.6667V48.125C51.5501 48.7328 51.3072 49.3157 50.8749 49.7455C50.4425 50.1752 49.8562 50.4167 49.2448 50.4167H7.74924C7.13783 50.4167 6.55147 50.1752 6.11914 49.7455C5.68681 49.3157 5.44393 48.7328 5.44393 48.125V36.6667H0.833313V48.125C0.833313 49.9484 1.56195 51.6971 2.85894 52.9864C4.15593 54.2757 5.91502 55 7.74924 55H49.2448C51.079 55 52.8381 54.2757 54.1351 52.9864C55.4321 51.6971 56.1607 49.9484 56.1607 48.125V36.6667H51.5501Z" fill="#BFBFBF"/>
        <path d="M28.4209 -4.45402e-06C27.5131 -0.0024923 26.6137 0.173147 25.7742 0.516847C24.9348 0.860547 24.1718 1.36555 23.5291 2.00291L14.4946 10.984L17.7543 14.2244L26.1318 5.89875L26.1917 43.5417H30.8023L30.7424 5.93083L39.0853 14.2244L42.345 10.984L33.3105 2.00291C32.6682 1.36562 31.9056 0.860642 31.0666 0.516936C30.2275 0.17323 29.3284 -0.002441 28.4209 -4.45402e-06Z" fill="#BFBFBF"/>
    </g>
    <defs>
        <clipPath id="clip0_5510_32">
            <rect width="55.3274" height="55" fill="white" transform="translate(0.833313)"/>
        </clipPath>
    </defs>
</svg>